<svg xmlns="http://www.w3.org/2000/svg" viewBox="0 0 85.0283 72.9167">
  <g id="full-rgb">
    <g>
      <path id="fullLogo" d="M77.1437,17.0852H75.7181v-.7043h3.59v.7043H77.8824v4.6207h-.7387Zm3.1952-.7043h.8072l1.546,2.7484,1.546-2.7484h.79v5.325h-.7215v-4.071l-1.58,2.8342h-.086l-1.58-2.8342v4.071h-.7213Z" style="fill: #ee2e24"/>
      <path id="fullLogo-2" d="M46.9284,35.688,61.2005,16.35H46.54L33.3286,34.8655V16.35H20.5079V56.5655H33.3286V38.05L56.1333,67.4586A37.0657,37.0657,0,0,1,36.47,72.9167C15.765,72.9167,0,57.1719,0,36.4467,0,15.7451,15.765,0,36.47,0S72.9369,15.7451,72.9369,36.4467a36.8582,36.8582,0,0,1-7.4917,22.5881Z" style="fill: #ee2e24"/>
    </g>
  </g>
</svg>
